HIERARCHY
ROOT Hip
{
	OFFSET	0.0000	0.0000	0.0000
	CHANNELS 6 Xposition Yposition Zposition Xrotation Yrotation Zrotation
	JOINT LowerSpine
	{
		OFFSET	0.0000	9.2663	-5.5158
		CHANNELS 3 Xrotation Yrotation Zrotation
		JOINT MiddleSpine
		{
			OFFSET	0.0000	8.4562	0.3976
			CHANNELS 3 Xrotation Yrotation Zrotation
			JOINT Chest
			{
				OFFSET	0.0000	10.4635	-2.0962
				CHANNELS 3 Xrotation Yrotation Zrotation
				JOINT Neck
				{
					OFFSET	0.0000	23.5793	-0.4413
					CHANNELS 3 Xrotation Yrotation Zrotation
					JOINT Head
					{
						OFFSET	-0.0001	13.3155	3.6218
						CHANNELS 3 Xrotation Yrotation Zrotation
						End Site
						{
							OFFSET	0.0001	18.6051	0.5554
						}
					}
				}
				JOINT LClavicle
				{
					OFFSET	2.1425	22.7552	7.0165
					CHANNELS 3 Xrotation Yrotation Zrotation
					JOINT LShoulder
					{
						OFFSET	12.5166	3.2639	-5.2813
						CHANNELS 3 Xrotation Yrotation Zrotation
						JOINT LForearm
						{
							OFFSET	29.5419	-0.1047	-0.2560
							CHANNELS 3 Xrotation Yrotation Zrotation
							JOINT LHand
							{
								OFFSET	24.6442	0.0715	-0.1476
								CHANNELS 3 Xrotation Yrotation Zrotation
								JOINT LFinger1
								{
									OFFSET	9.5514	0.8353	2.6529
									CHANNELS 3 Xrotation Yrotation Zrotation
									JOINT LFinger11
									{
										OFFSET	3.5727	-0.8712	0.6295
										CHANNELS 3 Xrotation Yrotation Zrotation
										JOINT LFinger12
										{
											OFFSET	2.4390	-0.5949	0.4299
											CHANNELS 3 Xrotation Yrotation Zrotation
											End Site
											{
												OFFSET	1.7356	-0.5181	0.2815
											}
										}
									}
								}
								JOINT LFinger2
								{
									OFFSET	9.6939	0.9646	0.2310
									CHANNELS 3 Xrotation Yrotation Zrotation
									JOINT LFinger21
									{
										OFFSET	4.4174	0.0123	-0.0261
										CHANNELS 3 Xrotation Yrotation Zrotation
										JOINT LFinger22
										{
											OFFSET	2.4486	0.0075	-0.0149
											CHANNELS 3 Xrotation Yrotation Zrotation
											End Site
											{
												OFFSET	2.1993	-0.1553	0.0029
											}
										}
									}
								}
								JOINT LFinger3
								{
									OFFSET	9.1870	0.6438	-2.1735
									CHANNELS 3 Xrotation Yrotation Zrotation
									JOINT LFinger31
									{
										OFFSET	4.0084	-0.2029	-0.2510
										CHANNELS 3 Xrotation Yrotation Zrotation
										JOINT LFinger32
										{
											OFFSET	2.2842	-0.1149	-0.1435
											CHANNELS 3 Xrotation Yrotation Zrotation
											End Site
											{
												OFFSET	2.0196	-0.2483	-0.0955
											}
										}
									}
								}
								JOINT LFinger4
								{
									OFFSET	8.5252	-0.6478	-3.7536
									CHANNELS 3 Xrotation Yrotation Zrotation
									JOINT LFinger41
									{
										OFFSET	2.4655	-0.5142	-0.6806
										CHANNELS 3 Xrotation Yrotation Zrotation
										JOINT LFinger42
										{
											OFFSET	1.8080	-0.3765	-0.4994
											CHANNELS 3 Xrotation Yrotation Zrotation
											End Site
											{
												OFFSET	1.6047	-0.4409	-0.3682
											}
										}
									}
								}
								JOINT LFinger0
								{
									OFFSET	1.9759	-1.4955	1.4979
									CHANNELS 3 Xrotation Yrotation Zrotation
									JOINT LFinger01
									{
										OFFSET	3.6787	-1.2081	2.7735
										CHANNELS 3 Xrotation Yrotation Zrotation
										JOINT LFinger02
										{
											OFFSET	2.4224	-0.8668	1.7452
											CHANNELS 3 Xrotation Yrotation Zrotation
											End Site
											{
												OFFSET	1.7813	-0.6132	1.2198
											}
										}
									}
								}
							}
						}
					}
				}
				JOINT RClavicle
				{
					OFFSET	-2.1425	22.7552	7.0164
					CHANNELS 3 Xrotation Yrotation Zrotation
					JOINT RShoulder
					{
						OFFSET	-12.5188	3.2645	-5.2822
						CHANNELS 3 Xrotation Yrotation Zrotation
						JOINT RForearm
						{
							OFFSET	-29.5419	-0.1047	-0.2560
							CHANNELS 3 Xrotation Yrotation Zrotation
							JOINT RHand
							{
								OFFSET	-24.6442	0.0715	-0.1476
								CHANNELS 3 Xrotation Yrotation Zrotation
								JOINT RFinger1
								{
									OFFSET	-9.5514	0.8354	2.6529
									CHANNELS 3 Xrotation Yrotation Zrotation
									JOINT RFinger11
									{
										OFFSET	-3.5727	-0.8712	0.6295
										CHANNELS 3 Xrotation Yrotation Zrotation
										JOINT RFinger12
										{
											OFFSET	-2.4390	-0.5950	0.4299
											CHANNELS 3 Xrotation Yrotation Zrotation
											End Site
											{
												OFFSET	-1.7356	-0.5181	0.2815
											}
										}
									}
								}
								JOINT RFinger2
								{
									OFFSET	-9.6939	0.9647	0.2310
									CHANNELS 3 Xrotation Yrotation Zrotation
									JOINT RFinger21
									{
										OFFSET	-4.4175	0.0123	-0.0261
										CHANNELS 3 Xrotation Yrotation Zrotation
										JOINT RFinger22
										{
											OFFSET	-2.4486	0.0075	-0.0150
											CHANNELS 3 Xrotation Yrotation Zrotation
											End Site
											{
												OFFSET	-2.1993	-0.1553	0.0029
											}
										}
									}
								}
								JOINT RFinger3
								{
									OFFSET	-9.1870	0.6438	-2.1735
									CHANNELS 3 Xrotation Yrotation Zrotation
									JOINT RFinger31
									{
										OFFSET	-4.0084	-0.2029	-0.2510
										CHANNELS 3 Xrotation Yrotation Zrotation
										JOINT RFinger32
										{
											OFFSET	-2.2842	-0.1149	-0.1435
											CHANNELS 3 Xrotation Yrotation Zrotation
											End Site
											{
												OFFSET	-2.0196	-0.2483	-0.0955
											}
										}
									}
								}
								JOINT RFinger4
								{
									OFFSET	-8.5252	-0.6478	-3.7536
									CHANNELS 3 Xrotation Yrotation Zrotation
									JOINT RFinger41
									{
										OFFSET	-2.4655	-0.5141	-0.6806
										CHANNELS 3 Xrotation Yrotation Zrotation
										JOINT RFinger42
										{
											OFFSET	-1.8080	-0.3764	-0.4994
											CHANNELS 3 Xrotation Yrotation Zrotation
											End Site
											{
												OFFSET	-1.6047	-0.4409	-0.3682
											}
										}
									}
								}
								JOINT RFinger0
								{
									OFFSET	-1.9759	-1.4954	1.4978
									CHANNELS 3 Xrotation Yrotation Zrotation
									JOINT RFinger01
									{
										OFFSET	-3.6787	-1.2083	2.7736
										CHANNELS 3 Xrotation Yrotation Zrotation
										JOINT RFinger02
										{
											OFFSET	-2.4223	-0.8667	1.7452
											CHANNELS 3 Xrotation Yrotation Zrotation
											End Site
											{
												OFFSET	-1.7813	-0.6132	1.2198
											}
										}
									}
								}
							}
						}
					}
				}
			}
		}
	}
	JOINT RThigh
	{
		OFFSET	-10.9561	4.1886	-0.8987
		CHANNELS 3 Xrotation Yrotation Zrotation
		JOINT RShin
		{
			OFFSET	-0.7932	-43.1154	0.0000
			CHANNELS 3 Xrotation Yrotation Zrotation
			JOINT RFoot
			{
				OFFSET	0.0000	-42.3368	0.0000
				CHANNELS 3 Xrotation Yrotation Zrotation
				JOINT RToe
				{
					OFFSET	0.0000	-4.6532	9.7304
					CHANNELS 3 Xrotation Yrotation Zrotation
					End Site
					{
						OFFSET	0.0000	0.0000	6.5278
					}
				}
			}
		}
	}
	JOINT LThigh
	{
		OFFSET	10.9559	4.1889	-0.8988
		CHANNELS 3 Xrotation Yrotation Zrotation
		JOINT LShin
		{
			OFFSET	0.7933	-43.1157	0.0000
			CHANNELS 3 Xrotation Yrotation Zrotation
			JOINT LFoot
			{
				OFFSET	0.0000	-42.3368	0.0000
				CHANNELS 3 Xrotation Yrotation Zrotation
				JOINT LToe
				{
					OFFSET	0.0000	-4.6532	9.7305
					CHANNELS 3 Xrotation Yrotation Zrotation
					End Site
					{
						OFFSET	0.0000	0.0000	6.5278
					}
				}
			}
		}
	}
}
MOTION
Frames:	4
Frame Time: 0.0333333000
	7.6085	46.5285	-44.2067	54.309630	52.969750	-65.618000	0.000000	0.000000	0.000000	-1.355357	-6.298076	-6.687863	-7.882951	-19.893680	-23.671000	-14.640290	2.939222	-7.070935	-24.076520	8.160122	-32.496120	0.000000	0.000000	19.156680	-32.266680	4.780095	39.956460	0.040365	-10.241020	-0.002666	-14.121690	1.118890	-3.369142	0.000000	0.000000	0.000000	0.000000	0.000000	0.000000	0.000000	0.000000	0.000000	0.000000	0.000000	0.000000	0.000000	0.000000	0.000000	0.000000	0.000000	0.000000	0.000000	0.000000	0.000000	0.000000	0.000000	0.000000	0.000000	0.000000	0.000000	0.000000	0.000000	0.000000	0.000000	0.000000	0.000000	0.000000	0.000000	0.000000	0.000000	0.000000	0.000000	0.000000	0.000000	0.000000	0.000000	0.000000	0.000000	0.000000	0.000000	-29.259080	-27.597150	25.290240	-72.940430	-10.753250	1.878531	0.421265	0.000000	0.000000	0.000000	0.000000	0.000000	0.000000	0.000000	0.000000	0.000000	0.000000	0.000000	0.000000	0.000000	0.000000	0.000000	0.000000	0.000000	0.000000	0.000000	0.000000	0.000000	0.000000	0.000000	0.000000	0.000000	0.000000	0.000000	0.000000	0.000000	0.000000	0.000000	0.000000	0.000000	0.000000	0.000000	0.000000	0.000000	0.000000	0.000000	0.000000	0.000000	0.000000	0.000000	0.000000	0.000000	0.000000	0.000000	0.000000	-87.673320	-22.534190	-56.807320	69.511360	0.000005	-0.000004	1.007358	0.614798	0.290327	-0.000038	0.000000	0.000000	-96.528340	-8.993748	44.913020	77.752040	0.000006	-0.000003	-1.230835	-0.041588	-0.020017	-0.063716	0.000000	0.000000
	7.3886	46.6072	-44.0560	55.377010	53.383320	-66.479780	0.000000	0.000000	0.000000	-1.066345	-6.013717	-6.882585	-6.956137	-19.008040	-24.144890	-14.752770	2.822397	-6.764795	-22.034090	7.756659	-33.439520	0.000000	0.000000	20.056380	-24.593730	7.077676	38.241910	0.024818	-5.835263	-0.002642	-13.860900	1.018941	-3.367761	0.000000	0.000000	0.000000	0.000000	0.000000	0.000000	0.000000	0.000000	0.000000	0.000000	0.000000	0.000000	0.000000	0.000000	0.000000	0.000000	0.000000	0.000000	0.000000	0.000000	0.000000	0.000000	0.000000	0.000000	0.000000	0.000000	0.000000	0.000000	0.000000	0.000000	0.000000	0.000000	0.000000	0.000000	0.000000	0.000000	0.000000	0.000000	0.000000	0.000000	0.000000	0.000000	0.000000	0.000000	0.000000	0.000000	0.000000	-29.364640	-32.149090	36.064300	-70.868880	-16.205250	1.802890	0.543063	0.000000	0.000000	0.000000	0.000000	0.000000	0.000000	0.000000	0.000000	0.000000	0.000000	0.000000	0.000000	0.000000	0.000000	0.000000	0.000000	0.000000	0.000000	0.000000	0.000000	0.000000	0.000000	0.000000	0.000000	0.000000	0.000000	0.000000	0.000000	0.000000	0.000000	0.000000	0.000000	0.000000	0.000000	0.000000	0.000000	0.000000	0.000000	0.000000	0.000000	0.000000	0.000000	0.000000	0.000000	0.000000	0.000000	0.000000	0.000000	-88.284010	-22.450960	-57.789630	70.320570	0.000005	-0.000004	1.399716	0.729725	0.338867	-0.000038	0.000000	0.000000	-96.141300	-8.787586	43.899720	76.726950	0.000006	-0.000003	-1.396950	0.099593	0.048852	-0.000075	0.000000	0.000000
	7.3154	46.6474	-44.0069	55.728390	53.578860	-66.763610	0.000000	0.000000	0.000000	-0.929385	-5.933776	-6.949693	-6.565910	-18.755760	-24.309530	-14.781670	2.760803	-6.611865	-21.369310	7.610503	-33.699250	0.000000	0.000000	20.292680	-22.147450	7.768866	37.729020	0.012314	-4.472171	-0.001331	-7.473271	0.389761	-1.889971	0.000000	0.000000	0.000000	0.000000	0.000000	0.000000	0.000000	0.000000	0.000000	0.000000	0.000000	0.000000	0.000000	0.000000	0.000000	0.000000	0.000000	0.000000	0.000000	0.000000	0.000000	0.000000	0.000000	0.000000	0.000000	0.000000	0.000000	0.000000	0.000000	0.000000	0.000000	0.000000	0.000000	0.000000	0.000000	0.000000	0.000000	0.000000	0.000000	0.000000	0.000000	0.000000	0.000000	0.000000	0.000000	0.000000	0.000000	-29.387360	-33.013540	39.132400	-70.868620	-18.698200	1.162476	0.384993	0.000000	0.000000	0.000000	0.000000	0.000000	0.000000	0.000000	0.000000	0.000000	0.000000	0.000000	0.000000	0.000000	0.000000	0.000000	0.000000	0.000000	0.000000	0.000000	0.000000	0.000000	0.000000	0.000000	0.000000	0.000000	0.000000	0.000000	0.000000	0.000000	0.000000	0.000000	0.000000	0.000000	0.000000	0.000000	0.000000	0.000000	0.000000	0.000000	0.000000	0.000000	0.000000	0.000000	0.000000	0.000000	0.000000	0.000000	0.000000	-88.433600	-22.476250	-58.158360	70.492530	0.000005	-0.000004	1.602738	0.988075	0.455367	-0.000038	0.000000	0.000000	-95.980610	-8.717823	43.518180	76.428300	0.000006	-0.000003	-1.462321	0.263248	0.129958	-0.000002	0.000000	0.000000
	7.3136	46.6889	-43.9896	55.907310	53.735160	-66.922390	0.000000	0.000000	0.000000	-0.838488	-5.926357	-6.974473	-6.369660	-18.717430	-24.376100	-14.752940	2.727179	-6.536766	-21.200340	7.553491	-33.682030	0.000000	0.000000	20.310520	-21.454940	7.981926	37.611850	0.004679	-4.219338	-0.000393	-2.137212	0.061638	-0.561277	0.000000	0.000000	0.000000	0.000000	0.000000	0.000000	0.000000	0.000000	0.000000	0.000000	0.000000	0.000000	0.000000	0.000000	0.000000	0.000000	0.000000	0.000000	0.000000	0.000000	0.000000	0.000000	0.000000	0.000000	0.000000	0.000000	0.000000	0.000000	0.000000	0.000000	0.000000	0.000000	0.000000	0.000000	0.000000	0.000000	0.000000	0.000000	0.000000	0.000000	0.000000	0.000000	0.000000	0.000000	0.000000	0.000000	0.000000	-29.391950	-32.443130	39.439810	-71.916170	-19.301160	0.690543	0.240714	0.000000	0.000000	0.000000	0.000000	0.000000	0.000000	0.000000	0.000000	0.000000	0.000000	0.000000	0.000000	0.000000	0.000000	0.000000	0.000000	0.000000	0.000000	0.000000	0.000000	0.000000	0.000000	0.000000	0.000000	0.000000	0.000000	0.000000	0.000000	0.000000	0.000000	0.000000	0.000000	0.000000	0.000000	0.000000	0.000000	0.000000	0.000000	0.000000	0.000000	0.000000	0.000000	0.000000	0.000000	0.000000	0.000000	0.000000	0.000000	-88.418940	-22.595580	-58.389250	70.411610	0.000005	-0.000004	1.625053	1.253839	0.577845	-0.000038	0.000000	0.000000	-95.883250	-8.670742	43.303460	76.372930	0.000006	-0.000003	-1.660677	0.410020	0.203378	0.000047	0.000000	0.000000
